<?xml version="1.0" encoding="utf-8"?>
<!-- Generator: Adobe Illustrator 23.0.4, SVG Export Plug-In . SVG Version: 6.00 Build 0)  -->
<svg version="1.1" id="Layer_1" xmlns="http://www.w3.org/2000/svg" xmlns:xlink="http://www.w3.org/1999/xlink" x="0px" y="0px"
	 viewBox="0 0 329.54 93.07" style="enable-background:new 0 0 329.54 93.07;" xml:space="preserve">
<style type="text/css">
	.st0{fill:#231F20;}
</style>
<g>
	<g>
		<path class="st0" d="M75.72,36.89c1.35-1.74,1.41-4.06,1.8-6.14c0.19,2.1-0.05,4.56,1.53,6.22c1.86,1.84,4.69,1.54,7.1,1.68
			c-2.33,0.36-4.91,0.34-6.85,1.82c-1.89,1.7-1.63,4.47-1.79,6.78c-0.39-2.27-0.36-4.86-2-6.65c-1.64-1.42-3.93-1.45-5.94-1.89
			C71.68,38.48,74.19,38.62,75.72,36.89z"/>
		<path class="st0" d="M103.25,11.9c-0.69-1.87-1.81-3.66-3.25-5.11c-1.43-1.46-3.1-2.61-4.84-3.47c-1.74-0.85-3.53-1.44-5.31-1.85
			c-1.78-0.4-3.54-0.62-5.29-0.74c-1.88-0.11-3.84,0.01-5.72,0.35c-3.78,0.66-7.32,2.16-10.38,4.07c-3.09,1.9-5.78,4.18-8.18,6.61
			c-2.43,2.42-4.52,5.05-6.46,7.73c-1.24,1.73-2.4,3.5-3.49,5.3c-1.18-1.68-2.47-3.3-3.89-4.82c-4.72-5-10.65-9.01-17.29-11.22
			c-1.66-0.56-3.35-1.01-5.15-1.31c-0.44-0.08-0.91-0.14-1.38-0.2l-0.76-0.08l-0.45-0.03l-0.34-0.01c-0.9-0.04-1.84-0.04-2.77,0.02
			c-1.87,0.12-3.79,0.45-5.68,1.1c-1.89,0.64-3.77,1.62-5.36,2.99c-1.61,1.34-2.9,3.04-3.82,4.81c-0.91,1.78-1.44,3.62-1.74,5.41
			c-0.31,1.79-0.38,3.54-0.3,5.23c0.08,1.7,0.23,3.31,0.6,5.04c0.37,1.69,0.91,3.4,1.77,4.99c0.84,1.59,2.02,3.07,3.45,4.18
			c1.43,1.12,3.08,1.87,4.74,2.24c1.68,0.34,3.31,0.42,4.98,0.09l-0.1-1.26c-1.38-0.2-2.81-0.64-3.99-1.31
			c-1.2-0.65-2.24-1.48-2.99-2.49c-1.52-2.01-2.08-4.52-2.11-7.16c0.01-1.3,0.07-2.74,0.24-4.08c0.17-1.35,0.44-2.64,0.82-3.81
			c0.78-2.37,2.03-4.14,3.65-5.12c1.6-1.01,3.71-1.45,6.07-1.34c0.59,0.02,1.17,0.07,1.79,0.15l0.23,0.03
			c0.12,0.01,0.02,0.01,0.11,0.03l0.37,0.09c0.27,0.07,0.56,0.14,0.86,0.23c1.18,0.36,2.4,0.8,3.59,1.32
			c4.75,2.13,9.07,5.28,12.58,9.24c2.33,2.61,4.4,5.49,6.3,8.57c-0.02,0.05-0.05,0.1-0.07,0.15c-2.58,5.87-4.64,11.91-6.27,18.08
			c-0.8,3.09-1.51,6.21-2.08,9.4c-0.56,3.2-1.02,6.41-1.14,9.97c-0.08,1.84,0.1,3.71,0.45,5.6c0.36,1.89,0.95,3.82,1.94,5.7
			c0.98,1.87,2.38,3.71,4.35,5.12c0.99,0.69,2.1,1.28,3.3,1.64c1.21,0.36,2.49,0.5,3.72,0.38c2.48-0.22,4.59-1.39,6.04-2.81
			c1.48-1.42,2.45-3.04,3.18-4.65c1.43-3.25,1.93-6.51,2.27-9.74c0.18-1.62,0.29-3.25,0.25-4.77c0-1.55,0.09-3.11,0.03-4.66
			c0.01-3.12-0.1-6.25-0.27-9.41c-0.34-5.3-1.07-10.68-2.53-15.98c2.13-4.68,4.48-9.23,7.14-13.44c2.98-4.68,6.4-8.99,10.34-12.02
			c1.97-1.51,4.04-2.65,6.2-3.33c1.09-0.33,2.18-0.55,3.34-0.66c1.3-0.1,2.58-0.12,3.81-0.04c4.95,0.31,8.79,2.3,9.79,7.19
			c0.48,2.37,0.29,5.15-0.56,7.8c-0.8,2.68-2.21,5.27-4.1,7.59l0.83,0.96c2.72-1.67,5.06-4.04,6.84-6.87c1.73-2.84,3-6.18,3.07-9.9
			C104.23,15.72,103.95,13.78,103.25,11.9z M47.53,83.62c-0.3-0.64-0.54-1.45-0.72-2.39c-0.17-0.94-0.27-2-0.28-3.13
			c-0.02-1.14,0.1-2.33,0.19-3.52c0.26-2.52,0.82-5.33,1.5-8.09c0.69-2.77,1.48-5.56,2.38-8.31c0.51-1.59,1.05-3.17,1.62-4.75
			c0.01,0.02,0.01,0.05,0.02,0.07c0.42,1.56,6.46,24.22,0.64,30.31c-0.53,0.5-1.1,0.91-1.67,1.16c-0.97,0.4-1.87,0.38-2.45,0.06
			C48.17,84.73,47.84,84.24,47.53,83.62z"/>
	</g>
	<polygon class="st0" points="121.53,20.34 130.23,20.3 130.28,29.08 134.76,29.05 134.65,8.74 130.17,8.76 130.21,16.34 
		121.51,16.38 121.47,8.81 116.99,8.83 117.1,29.15 121.58,29.12 	"/>
	<polygon class="st0" points="145.61,29.13 150.09,29.11 150.04,20.44 157.62,8.75 152.31,8.78 147.78,16.41 143.43,8.83 
		137.86,8.86 145.57,20.47 	"/>
	<path class="st0" d="M165.34,29.1l-0.04-7.92l3.27-0.02c1.07-0.01,2.07-0.11,2.99-0.32c0.92-0.2,1.71-0.55,2.38-1.03
		c0.67-0.48,1.19-1.13,1.57-1.93c0.38-0.81,0.56-1.8,0.56-2.99c-0.01-1.2-0.22-2.2-0.63-3c-0.42-0.79-0.97-1.42-1.67-1.89
		c-0.7-0.46-1.52-0.79-2.46-0.97c-0.94-0.19-1.93-0.28-2.99-0.27l-7.55,0.04l0.11,20.31L165.34,29.1z M167.55,12.56
		c0.42,0,0.86,0.02,1.32,0.06c0.46,0.05,0.88,0.15,1.25,0.32c0.38,0.17,0.68,0.41,0.92,0.73c0.24,0.31,0.36,0.73,0.36,1.25
		c0,0.48-0.09,0.88-0.27,1.19c-0.18,0.32-0.42,0.57-0.71,0.75c-0.3,0.18-0.63,0.32-1,0.39c-0.38,0.08-0.76,0.12-1.16,0.12
		l-2.99,0.02l-0.03-4.82L167.55,12.56z"/>
	<polygon class="st0" points="193.61,29.06 193.59,24.93 183.74,24.98 183.71,20.85 192.53,20.8 192.51,16.67 183.69,16.72 
		183.67,12.93 193.01,12.88 192.98,8.75 179.17,8.82 179.28,29.14 	"/>
	<path class="st0" d="M207.76,29.06l5.37-0.03l-5.22-8.55c1.44-0.28,2.53-0.91,3.26-1.92c0.74-1.01,1.11-2.23,1.1-3.67
		c-0.01-1.18-0.22-2.17-0.63-2.97c-0.41-0.79-0.97-1.42-1.67-1.89c-0.7-0.46-1.52-0.8-2.45-0.99c-0.93-0.2-1.91-0.29-2.94-0.29
		l-7.87,0.04l0.1,20.31l4.48-0.02l-0.04-8.12l2.21-0.01L207.76,29.06z M201.23,17.19l-0.02-4.62l2.93-0.01
		c0.4,0,0.81,0.02,1.23,0.08c0.42,0.06,0.8,0.16,1.12,0.32c0.33,0.16,0.6,0.39,0.81,0.7c0.21,0.3,0.32,0.72,0.32,1.23
		c0,0.55-0.12,0.98-0.35,1.29c-0.24,0.31-0.54,0.53-0.9,0.68c-0.36,0.15-0.77,0.23-1.22,0.26c-0.45,0.03-0.88,0.05-1.28,0.05
		L201.23,17.19z"/>
	<polygon class="st0" points="229.01,29.03 228.99,24.9 220.69,24.94 220.6,8.76 216.12,8.78 216.23,29.1 	"/>
	<polygon class="st0" points="246.55,29.05 246.53,24.92 236.68,24.97 236.66,20.84 245.47,20.79 245.45,16.66 236.64,16.7 
		236.62,12.92 245.95,12.87 245.93,8.74 232.11,8.81 232.22,29.12 	"/>
	<path class="st0" d="M265.06,26.44c1.05-0.85,1.88-1.91,2.49-3.17c0.62-1.25,0.92-2.71,0.91-4.35c-0.01-1.86-0.34-3.43-0.98-4.73
		c-0.65-1.3-1.52-2.35-2.62-3.16c-1.09-0.81-2.38-1.39-3.84-1.75c-1.47-0.35-3.01-0.53-4.64-0.52l-6.72,0.03l0.11,20.31l7.32-0.04
		c1.51-0.01,2.96-0.23,4.33-0.68C262.79,27.95,264.01,27.3,265.06,26.44z M256.55,24.95l-2.33,0.01l-0.06-12.05l2.64-0.01
		c0.94,0,1.84,0.11,2.69,0.35c0.85,0.23,1.6,0.59,2.23,1.06c0.63,0.48,1.14,1.08,1.52,1.81c0.38,0.74,0.57,1.6,0.57,2.59
		c0.01,1.15-0.18,2.12-0.55,2.91c-0.37,0.8-0.88,1.44-1.53,1.93c-0.65,0.49-1.42,0.84-2.31,1.06
		C258.54,24.84,257.58,24.94,256.55,24.95z"/>
	<path class="st0" d="M283.1,17.05l0.02,4.13l3.65-0.02l0.02,3.3c-0.42,0.23-0.98,0.46-1.69,0.68c-0.71,0.22-1.55,0.34-2.53,0.34
		c-0.96,0-1.83-0.15-2.6-0.47c-0.78-0.32-1.44-0.77-2-1.35c-0.56-0.58-0.99-1.27-1.29-2.06c-0.3-0.79-0.45-1.66-0.46-2.62
		c-0.01-0.94,0.14-1.81,0.43-2.61c0.29-0.81,0.72-1.5,1.27-2.09c0.55-0.59,1.22-1.04,1.99-1.37c0.77-0.33,1.64-0.5,2.6-0.5
		c1.15-0.01,2.11,0.15,2.87,0.47c0.77,0.32,1.46,0.8,2.08,1.43l3.14-3.46c-1.04-0.95-2.24-1.62-3.61-2.01
		c-1.37-0.39-2.87-0.57-4.5-0.56c-1.59,0.01-3.05,0.26-4.39,0.77c-1.34,0.5-2.49,1.22-3.46,2.15c-0.97,0.93-1.73,2.06-2.27,3.38
		c-0.54,1.32-0.8,2.8-0.79,4.42c0.01,1.63,0.29,3.1,0.84,4.42c0.55,1.32,1.32,2.44,2.3,3.36c0.98,0.92,2.14,1.63,3.48,2.12
		c1.34,0.49,2.81,0.73,4.4,0.72c1.49-0.01,2.96-0.17,4.39-0.48c1.43-0.31,2.81-0.82,4.13-1.51L291.05,17L283.1,17.05z"/>
	<polygon class="st0" points="308.65,28.58 308.63,24.45 298.78,24.5 298.76,20.37 307.57,20.32 307.55,16.19 298.74,16.24 
		298.72,12.45 308.05,12.4 308.03,8.27 294.22,8.34 294.32,28.66 	"/>
	<path class="st0" d="M316.34,28.62l-0.04-8.12l2.21-0.01l4.29,8.1l5.37-0.03L322.96,20c1.44-0.28,2.52-0.92,3.26-1.92
		c0.74-1.01,1.11-2.23,1.1-3.67c-0.01-1.18-0.22-2.17-0.63-2.97c-0.42-0.79-0.97-1.42-1.68-1.89c-0.7-0.46-1.52-0.8-2.45-0.99
		c-0.93-0.2-1.91-0.29-2.94-0.29l-7.87,0.04l0.11,20.31L316.34,28.62z M319.18,12.07c0.4,0,0.81,0.02,1.24,0.08
		c0.42,0.05,0.8,0.16,1.12,0.32c0.33,0.16,0.6,0.39,0.81,0.7c0.21,0.3,0.32,0.72,0.32,1.23c0,0.55-0.12,0.98-0.35,1.29
		c-0.24,0.31-0.54,0.53-0.9,0.68c-0.36,0.15-0.77,0.23-1.22,0.27c-0.45,0.03-0.88,0.05-1.28,0.05l-2.64,0.01l-0.02-4.62
		L319.18,12.07z"/>
	<path class="st0" d="M146.19,85.91l-3.63-9.17h-20.43l-3.63,9.17h-5.85l16.55-41.05h6.34l16.49,41.05H146.19z M132.34,50.1
		l-8.68,22.15h17.42L132.34,50.1z"/>
	<path class="st0" d="M181.14,85.91l-10.4-16.31h-8.25v16.31h-5.11V44.87h16.49c7.51,0,12.92,4.8,12.92,12.37
		c0,7.38-5.11,11.45-10.71,11.94l11.08,16.74H181.14z M181.51,57.24c0-4.68-3.39-7.82-8.25-7.82H162.5v15.69h10.77
		C178.13,65.11,181.51,61.85,181.51,57.24z"/>
	<path class="st0" d="M194.87,85.91V44.87h5.11v41.05H194.87z"/>
	<path class="st0" d="M209.58,85.91V44.87h26.89v4.55h-21.78v13.23h21.35v4.55h-21.35v14.15h21.78v4.55H209.58z"/>
	<path class="st0" d="M242.13,80.13l3.08-3.94c2.65,3.08,7.08,5.91,12.86,5.91c7.32,0,9.66-3.94,9.66-7.14
		c0-10.58-24.31-4.68-24.31-19.32c0-6.77,6.03-11.45,14.15-11.45c6.21,0,11.08,2.15,14.52,5.78l-3.08,3.75
		c-3.08-3.45-7.38-4.92-11.88-4.92c-4.86,0-8.43,2.65-8.43,6.52c0,9.23,24.31,3.94,24.31,19.26c0,5.91-4.06,12.06-15.14,12.06
		C250.81,86.65,245.52,83.94,242.13,80.13z"/>
</g>
</svg>
